<svg width="70" height="24" viewBox="0 0 70 24" fill="none" xmlns="http://www.w3.org/2000/svg">
<path fill-rule="evenodd" clip-rule="evenodd" d="M21.1681 17.0397V18.5936H19.0603C19.2166 18.5247 19.3683 18.4488 19.5177 18.3592C20.1406 17.996 20.69 17.5569 21.1681 17.0397ZM20.4923 8.13945C20.867 8.34403 21.0555 8.7187 21.0578 9.26118C21.0578 9.70482 20.8095 10.0335 20.3176 10.2427C20.0418 10.3645 19.5843 10.4657 18.9476 10.5461L17.7707 10.6932C16.4375 10.8656 15.4284 11.1484 14.7411 11.5437C13.4884 12.2724 12.8631 13.4493 12.8631 15.0744C12.8654 16.3272 13.2562 17.2926 14.0354 17.9776C14.3228 18.2281 14.6377 18.4327 14.9779 18.5913L9.52323 18.5936V16.7639C9.02903 17.5477 8.46816 18.1178 7.83834 18.4741C7.20621 18.8281 6.42238 19.0074 5.48454 19.0074C3.93986 19.0097 2.64114 18.3867 1.58606 17.1386C0.530993 15.8904 7.62815e-06 14.2883 7.62815e-06 12.3322C-0.002291 10.0749 0.514902 8.30035 1.55388 7.00852C2.59286 5.7121 3.98124 5.06388 5.719 5.06388C6.51892 5.06388 7.2292 5.23858 7.85213 5.59027C8.47506 5.94196 8.98076 6.42927 9.36922 7.0499L9.36463 0.0252842L12.87 0.0229846L12.8723 5.3742L16.4812 5.3696C15.587 5.73048 14.7779 6.13274 14.2515 6.80394C13.6792 7.5464 13.3551 8.49804 13.2838 9.65425L16.6191 9.65195C16.6996 9.14165 16.8605 8.73709 17.1018 8.43827C17.442 8.03371 18.0213 7.83143 18.8373 7.83143C19.5637 7.83143 20.1153 7.93257 20.4923 8.13945ZM8.70952 15.0032C9.21752 14.2745 9.47036 13.3344 9.47036 12.1781C9.47036 10.5622 9.06121 9.40599 8.2452 8.71181C7.7418 8.29116 7.16024 8.08198 6.49824 8.08198C5.48684 8.08198 4.74438 8.46586 4.27316 9.229C3.80194 9.99444 3.56518 10.9438 3.56748 12.0747C3.56748 13.293 3.81114 14.2699 4.29615 14.9963C4.77426 15.7295 5.50063 16.0973 6.47755 16.095C7.45677 16.095 8.20152 15.7295 8.70952 15.0032ZM20.0694 15.8399C19.4441 16.2766 18.7591 16.495 18.0167 16.495C17.5478 16.495 17.1501 16.3617 16.826 16.095C16.495 15.8353 16.3295 15.4123 16.3295 14.8216C16.3295 14.1596 16.5961 13.67 17.1294 13.355C17.4443 13.1689 17.9661 13.0102 18.6925 12.8815L19.4694 12.7367C19.8579 12.6632 20.1613 12.585 20.3843 12.5C20.6072 12.4149 20.8279 12.3046 21.0463 12.1666V13.4539C21.021 14.6101 20.6969 15.4054 20.0694 15.8399ZM36.8241 0V18.5936H33.3692V0H36.8241ZM38.7273 5.3765H42.2327V18.5936H38.7273V5.3765ZM50.2848 7.93487C49.1125 7.93487 48.308 8.43138 47.8736 9.42668C47.646 9.95077 47.5334 10.622 47.5334 11.4403V18.5936H44.09V5.39948H47.4231V7.32803C47.869 6.64764 48.2873 6.16033 48.685 5.86151C49.3953 5.32822 50.2963 5.06158 51.3882 5.06158C52.7536 5.06158 53.8707 5.41787 54.7419 6.13275C55.6108 6.84992 56.0452 8.03601 56.0452 9.69332V18.5936H52.503V10.553C52.503 9.85882 52.4111 9.32554 52.2249 8.95316C51.8847 8.27277 51.2388 7.93487 50.2848 7.93487ZM61.7297 20.9083C62.1021 21.2233 62.7296 21.3819 63.61 21.3819C64.8536 21.3819 65.688 20.9658 66.1086 20.1337C66.3822 19.6004 66.5201 18.7017 66.5201 17.442V16.5915C66.1891 17.157 65.8328 17.5822 65.4535 17.865C64.7662 18.3913 63.8721 18.6534 62.7733 18.6534C61.0746 18.6534 59.7184 18.058 58.7047 16.865C57.691 15.6721 57.183 14.0584 57.183 12.0218C57.183 9.98295 57.6726 8.40609 58.6496 7.06829C59.6288 5.73048 61.0148 5.06158 62.8101 5.06158C63.4721 5.06158 64.049 5.16272 64.5432 5.365C65.3845 5.7121 66.0626 6.35112 66.5798 7.27976V5.3765H69.9404V17.9132C69.9404 19.6188 69.6531 20.9037 69.0784 21.768C68.0923 23.2552 66.2006 24 63.4031 24C61.7136 24 60.3345 23.6667 59.2679 23.0047C58.2013 22.3427 57.6106 21.352 57.4979 20.0326H61.2562C61.355 20.4371 61.5114 20.729 61.7297 20.906V20.9083ZM61.1482 14.0814C61.6171 15.1962 62.4584 15.7548 63.6698 15.7548C64.4789 15.7548 65.1616 15.4491 65.7201 14.84C66.2764 14.2285 66.5568 13.2562 66.5568 11.923C66.5568 10.6702 66.2925 9.71631 65.7615 9.0612C65.2328 8.40609 64.5226 8.07969 63.6353 8.07969C62.4216 8.07969 61.5849 8.64974 61.1252 9.78757C60.8815 10.3944 60.762 11.1438 60.762 12.031C60.762 12.7988 60.8907 13.4838 61.1482 14.0814ZM38.6515 0L41.9201 3.40887L40.1847 3.59506L38.6997 4.78345L38.6515 0ZM32.2314 5.08457V8.62676C32.0153 8.60147 31.8199 8.58538 31.6498 8.57619C31.482 8.56699 31.3441 8.5647 31.2361 8.5647C29.8477 8.5647 28.9122 9.01752 28.4364 9.92319C28.1697 10.4312 28.0364 11.2173 28.0364 12.2747V18.5913L26.4641 18.5936C25.9906 18.5936 25.5585 18.4258 25.2206 18.1454C25.1585 18.0925 25.0965 18.0351 25.0413 17.973C24.7586 17.6719 24.5724 17.2811 24.5287 16.849C24.5287 16.8467 24.5241 16.7892 24.5241 16.7616C24.5218 16.711 24.5011 15.6169 24.5011 15.233V9.16924C24.5011 7.57629 23.9379 6.49593 22.8139 5.92127C22.3703 5.69141 21.8991 5.51212 21.4026 5.3765H27.8525V7.67972C28.3881 6.79935 28.8524 6.19481 29.2478 5.873C29.8937 5.33052 30.735 5.06158 31.7717 5.06158C31.836 5.06158 31.8889 5.06388 31.9326 5.06618C31.9785 5.07078 32.0797 5.07767 32.2314 5.08457Z" fill="white"/>
</svg>
