<svg width="700" height="122" viewBox="0 0 700 122" fill="none" xmlns="http://www.w3.org/2000/svg">
<path fill-rule="evenodd" clip-rule="evenodd" d="M86.4336 67.5188H0V57.3361H86.4336V0H89.1865V48.7911C93.6846 38.3382 103.468 32.1857 115.991 32.1857C129.703 32.1857 140.169 39.82 143.693 52.0915C144.144 53.6958 144.496 55.4004 144.697 57.1829C144.697 57.233 144.697 57.2859 144.722 57.3361H158.159C157.129 55.3502 156.524 52.9577 156.524 50.0305C156.524 40.1263 165.228 32.1857 179.774 32.1857C194.012 32.1857 202.62 40.0261 203.473 51.8353H189.233C188.806 47.2286 185.205 44.098 179.369 44.098C173.833 44.098 170.968 46.3624 170.968 49.7993C170.968 60.6449 203.575 53.8991 204.002 75.6905C204.002 85.8983 195.171 93.6356 180.853 93.6356C166.084 93.6356 155.794 84.929 155.142 73.8579H170.112C170.665 78.3866 174.789 81.8235 180.729 81.8235C186.59 81.8235 189.761 79.1247 189.761 75.6905C189.761 70.7496 182.59 69.5547 174.891 67.5188H101.547C101.723 69.3263 102.075 70.9808 102.681 72.4569C104.845 78.083 109.8 81.1634 115.663 81.1634C122.028 81.1634 125.551 77.9549 127.465 73.9832H143.492C140.296 84.929 130.531 93.6356 115.991 93.6356C103.62 93.6356 93.7286 87.3466 89.1865 76.8102V121.591H86.4336V67.5188ZM101.673 57.1829C101.673 57.233 101.649 57.2859 101.649 57.3361H129.576V57.1829C129.502 55.3001 129.1 53.5928 128.395 52.0915C126.231 47.3316 121.323 44.5297 115.561 44.5297C110.152 44.5297 105.599 47.2035 103.209 52.0915C102.48 53.5677 101.951 55.2722 101.673 57.1829ZM345.233 32.2916C358.945 32.2916 368.707 41.3295 368.707 57.7483V92.6747H353.839V59.8093C353.839 50.2394 348.63 45.0979 340.779 45.0979C332.703 45.0979 327.519 50.2394 327.519 59.8093V92.6747H312.651V33.1578H327.519V40.5636C331.321 35.5252 337.71 32.2916 345.233 32.2916ZM284.222 33.1578H299.192V93.1064C299.192 109.222 289.431 122 270.109 122C253.525 122 241.952 113.625 240.469 99.9802H255.238C256.721 105.353 262.233 108.89 269.679 108.89C277.858 108.89 284.222 104.155 284.222 93.1064V83.8679C280.726 89.0344 274.031 93.6411 264.798 93.6411C249.828 93.6411 237.928 81.2943 237.928 62.7115C237.928 44.1036 249.828 32.1913 264.798 32.1913C274.031 32.1913 280.726 36.4917 284.222 41.6331V33.1578ZM268.622 80.4309C276.776 80.4309 284.222 74.1921 284.222 62.9176C284.222 51.6376 276.776 45.4015 268.622 45.4015C260.647 45.4015 253.099 51.4092 253.099 62.7115C253.099 73.9888 260.647 80.4309 268.622 80.4309ZM221.191 8.43915C226.399 8.43915 230.324 12.3078 230.324 17.2738C230.324 22.2119 226.399 26.0806 221.191 26.0806C215.883 26.0806 212.057 22.2119 212.057 17.2738C212.057 12.3078 215.883 8.43915 221.191 8.43915ZM213.667 92.6747V33.1578H228.538V92.6747H213.667ZM37.9396 16.0678C60.4826 16.0678 75.5296 29.5342 76.8868 50.4845H61.6911C60.5569 36.8147 51.9296 28.7432 37.4111 28.7432H26.8925V50.4845H12.0244V16.0678H37.9396ZM435.711 13.174H437.723V92.6747H435.711V74.8299C432.716 85.2688 423.483 93.4127 409.796 93.4127C393.339 93.4127 381.868 82.1355 381.868 63.6808C381.868 45.1982 393.339 33.9209 409.796 33.9209C423.483 33.9209 432.716 42.0676 435.711 52.3784V13.174ZM409.796 91.5049C424.766 91.5049 435.711 80.4309 435.711 63.6808C435.711 46.9055 424.766 35.8566 409.796 35.8566C394.072 35.8566 383.98 46.3707 383.98 63.6808C383.98 80.9657 394.072 91.5049 409.796 91.5049ZM503.789 34.659H505.801V92.6747H503.789V74.958C500.821 85.2688 491.585 93.4127 477.873 93.4127C461.417 93.4127 449.946 82.1355 449.946 63.6808C449.946 45.1982 461.417 33.9209 477.873 33.9209C491.585 33.9209 500.821 42.0676 503.789 52.3784V34.659ZM477.873 91.5049C492.843 91.5049 503.789 80.4309 503.789 63.6808C503.789 46.9055 492.843 35.8566 477.873 35.8566C462.174 35.8566 452.085 46.3707 452.085 63.6808C452.085 80.9657 462.174 91.5049 477.873 91.5049ZM570.622 34.659H572.659V94.8137C572.659 111.589 560.533 121.034 547.273 121.034C533.032 121.034 523.923 113.296 520.628 102.119H522.742C525.836 112.124 534.015 119.101 547.273 119.101C560.332 119.101 570.622 109.756 570.622 94.8137V75.0583C567.655 85.2688 558.419 93.4127 544.732 93.4127C528.278 93.4127 516.804 82.1355 516.804 63.6808C516.804 45.1982 528.278 33.9209 544.732 33.9209C558.419 33.9209 567.655 42.0676 570.622 52.1751V34.659ZM544.732 91.5049C559.702 91.5049 570.622 80.4309 570.622 63.6808C570.622 46.9055 559.702 35.8566 544.732 35.8566C529.007 35.8566 518.918 46.3707 518.918 63.6808C518.918 80.9657 529.007 91.5049 544.732 91.5049ZM613.12 91.5049C625.877 91.5049 635.539 84.5029 637.351 73.0223H639.462C637.552 84.9374 627.991 93.4127 613.12 93.4127C597.193 93.4127 585.521 82.3666 585.521 63.6808C585.521 44.9698 597.193 33.9209 613.12 33.9209C630.659 33.9209 639.462 46.7022 639.462 58.8429C639.462 61.6169 639.462 62.7143 639.363 64.6472H587.657C587.959 83.23 600.289 91.5049 613.12 91.5049ZM613.12 35.8566C600.061 35.8566 587.657 44.2317 587.657 62.7143H637.552C638.609 44.0033 625.877 35.8566 613.12 35.8566ZM676.978 33.3611C689.509 33.3611 700 40.8951 700 58.8429V92.6747H697.988V58.6145C697.988 43.1622 689.608 35.2968 676.978 35.2968C663.919 35.2968 654.46 43.697 654.46 61.8481V92.6747H652.346V34.659H654.46V50.0361C657.226 38.7337 666.234 33.3611 676.978 33.3611Z" fill="white"/>
</svg>
