<svg width="131" height="26" viewBox="0 0 131 26" fill="none" xmlns="http://www.w3.org/2000/svg">
<path d="M15.0171 1.32447H0.225586V24.6213H2.04899V13.6845H13.1334V11.9513H2.04899V3.05643H15.0171V1.32447Z" fill="white"/>
<path d="M25.4405 8.03532C23.134 8.03532 20.8787 9.56192 20.0736 11.6297L20.037 8.24713V8.19805H18.4728V24.6213H20.2294V16.7429C20.2294 14.1159 20.9062 9.70915 25.4405 9.70915C25.981 9.69762 26.5208 9.75185 27.0479 9.8706L27.1107 9.88609V8.14122L27.0688 8.13347C26.5302 8.05177 25.9851 8.01891 25.4405 8.03532Z" fill="white"/>
<path d="M36.6191 7.77313C34.3101 7.77313 32.3519 8.76245 30.9539 10.6339C29.8426 12.1256 29.3242 13.9816 29.3242 16.4742C29.3242 18.945 30.0612 21.1005 31.4539 22.7098C32.831 24.2596 34.6138 25.0449 36.7527 25.0449C37.6357 25.0538 38.5117 24.8898 39.33 24.5624C40.1483 24.2349 40.8927 23.7506 41.52 23.1373C42.5121 22.2204 43.1684 21.005 43.3866 19.6811L43.397 19.623H41.5736L41.5645 19.6643C41.388 20.5325 40.9559 21.3299 40.3222 21.9568C39.4269 22.8725 38.1585 23.3775 36.7527 23.3775C35.0968 23.3775 33.763 22.8015 32.7878 21.6662C31.7406 20.4457 31.124 18.6957 31.0861 16.854H43.723V16.8023C43.723 16.606 43.7308 16.4329 43.74 16.2637C43.7492 16.0945 43.757 15.9202 43.757 15.7239C43.757 13.6199 43.0907 11.6581 41.8799 10.1986C40.5539 8.61134 38.741 7.77313 36.6191 7.77313ZM31.1136 15.2524C31.1358 11.866 33.4449 9.41339 36.6191 9.41339C40.0225 9.41339 41.8786 12.3413 41.9611 15.2524H31.1136Z" fill="white"/>
<path d="M65.8617 7.77313C63.4166 7.77313 61.533 8.99106 60.5434 11.206C60.0067 9.6097 58.6597 7.77313 55.3074 7.77313C53.1398 7.77313 51.2876 8.9239 50.3163 10.8612L50.133 8.24455V8.19805H48.5727V24.6213H50.3294V16.4148C50.3294 13.7026 50.9917 11.7136 52.2994 10.5099C53.0717 9.78277 54.0508 9.41468 55.208 9.41468C57.8822 9.41468 59.1284 10.8354 59.1284 13.9015V24.6213H60.9177V15.3325C60.9177 13.3603 61.5866 11.6917 62.8524 10.506C63.6375 9.7749 64.6844 9.38061 65.7636 9.40952C68.4143 9.40952 69.6486 10.8302 69.6486 13.8963V24.6161H71.4066V13.7969C71.4066 9.91193 69.4366 7.77313 65.8617 7.77313Z" fill="white"/>
<path d="M79.9333 3.28632L78.1766 3.70478V8.19805H74.8675V9.80085H78.1766V20.0311C78.1766 23.1812 79.6702 24.8473 82.4963 24.8473C83.3916 24.8473 84.2411 24.6678 85.143 24.4779L85.2935 24.4469V22.91L85.2333 22.9203C84.3756 23.0971 83.5032 23.1952 82.6272 23.2135C80.7396 23.2135 79.9333 22.2436 79.9333 19.9679V9.80085H89.7624V24.6213H91.6185V8.19805H79.9333V3.28632Z" fill="white"/>
<path d="M105.367 7.77313C103.026 7.77313 100.775 9.09955 99.8128 11.0201L99.6256 8.19805H98.0692V24.6213H99.8258V16.4148C99.8258 15.0652 100.037 13.1408 101.038 11.6271C101.982 10.2064 103.405 9.47926 105.267 9.47926C108.105 9.47926 109.483 10.9258 109.483 13.9015V24.6213H111.239V13.7969C111.239 9.96875 109.1 7.77313 105.367 7.77313Z" fill="white"/>
<path d="M90.6735 1.25602C90.4101 1.25602 90.1527 1.33309 89.9337 1.47748C89.7148 1.62186 89.5441 1.82708 89.4434 2.06716C89.3427 2.30725 89.3164 2.57142 89.3679 2.82624C89.4194 3.08107 89.5463 3.31511 89.7326 3.49876C89.9189 3.6824 90.1562 3.8074 90.4145 3.85793C90.6729 3.90847 90.9406 3.88227 91.1838 3.78266C91.427 3.68305 91.6348 3.51449 91.781 3.29832C91.9271 3.08214 92.0049 2.82807 92.0047 2.56823C92.004 2.22019 91.8635 1.88663 91.6139 1.64066C91.3644 1.39468 91.0262 1.25636 90.6735 1.25602Z" fill="white"/>
<path d="M128.469 0.951218V10.7785C127.507 8.99881 125.291 7.77313 122.996 7.77313C121.173 7.77313 119.648 8.34916 118.462 9.48443C116.811 11.0214 115.865 13.5567 115.865 16.4432C115.865 19.4719 116.835 21.9788 118.595 23.4989C119.773 24.5244 121.268 25.0488 123.03 25.0488C125.313 25.0488 127.57 23.7353 128.483 21.9013L128.672 24.6252H130.226V0.951218H128.469ZM126.402 22.0524C125.959 22.4748 125.436 22.8064 124.863 23.0281C124.289 23.2498 123.677 23.3571 123.062 23.3439C121.753 23.3439 120.698 22.9746 119.821 22.2138C118.424 20.9869 117.653 18.9243 117.653 16.4148C117.653 14.1172 118.307 12.1592 119.485 10.9C120.419 9.94421 121.565 9.47926 122.99 9.47926C124.39 9.47926 125.546 9.90288 126.428 10.7398C127.839 12.0417 128.496 13.8395 128.496 16.4148C128.503 18.8068 127.796 20.7066 126.402 22.0524Z" fill="white"/>
</svg>
