<?xml version="1.0" encoding="UTF-8" standalone="no"?>
<!DOCTYPE svg PUBLIC "-//W3C//DTD SVG 1.1//EN" "http://www.w3.org/Graphics/SVG/1.1/DTD/svg11.dtd">
<svg width="100%" height="100%" viewBox="0 0 270 24" version="1.1" xmlns="http://www.w3.org/2000/svg" xmlns:xlink="http://www.w3.org/1999/xlink" xml:space="preserve" xmlns:serif="http://www.serif.com/" style="fill-rule:evenodd;clip-rule:evenodd;stroke-linejoin:round;stroke-miterlimit:2;">
    <g id="g" transform="matrix(0.536386,1.21482e-17,-1.21482e-17,0.536386,316.623,-30.0807)">
        <path d="M-557.209,56.08C-551.121,56.08 -546.187,61.017 -546.187,67.103L-546.187,89.165C-546.187,95.249 -551.121,100.185 -557.209,100.185L-579.266,100.185C-585.355,100.185 -590.29,95.249 -590.29,89.165L-590.29,67.103C-590.29,61.017 -585.355,56.08 -579.266,56.08L-557.209,56.08ZM-557.209,89.165L-557.209,67.103L-579.266,67.103L-579.266,89.165L-557.209,89.165ZM-568.312,69.01C-563.316,69.01 -559.266,73.064 -559.266,78.059C-559.266,83.057 -563.316,87.105 -568.312,87.105C-573.309,87.105 -577.358,83.057 -577.358,78.059C-577.358,73.064 -573.309,69.01 -568.312,69.01ZM-515.334,56.127L-493.855,87.352L-493.855,63.327L-493.917,57.613L-500.372,57.613L-500.372,56.127L-486.529,56.127L-486.529,57.613L-491.868,57.613L-491.93,63.327L-491.93,100.513L-492.923,100.824L-521.728,58.919L-521.728,92.568L-521.667,98.464L-515.026,98.464L-515.026,99.954L-529.363,99.954L-529.363,98.464L-523.653,98.464L-523.592,92.568L-523.592,63.327L-523.653,57.613L-529.363,57.613L-529.363,56.127L-515.334,56.127ZM-443.694,56.127L-443.694,70.154L-445.557,70.154C-445.744,67.982 -445.993,65.253 -447.917,62.023C-450.151,58.237 -453.194,58.049 -456.173,57.925L-459.651,57.925L-459.711,63.513L-459.711,92.13L-459.651,98.464L-452.944,98.464L-452.944,99.954L-473.305,99.954L-473.305,98.464L-466.603,98.464L-466.539,92.13L-466.539,63.513L-466.603,57.925L-469.459,57.925C-473.059,57.987 -475.789,57.987 -478.397,62.146C-480.445,65.438 -480.632,68.045 -480.757,70.154L-482.556,70.154L-482.556,56.127L-443.694,56.127ZM-426.064,56.127L-404.585,87.352L-404.585,63.327L-404.646,57.613L-411.103,57.613L-411.103,56.127L-397.26,56.127L-397.26,57.613L-402.599,57.613L-402.662,63.327L-402.662,100.513L-403.655,100.824L-432.46,58.919L-432.46,92.568L-432.397,98.464L-425.752,98.464L-425.752,99.954L-440.095,99.954L-440.095,98.464L-434.381,98.464L-434.323,92.568L-434.323,63.327L-434.381,57.613L-440.095,57.613L-440.095,56.127L-426.064,56.127ZM-373.156,56.127L-373.156,57.613L-379.304,57.613L-379.363,62.893L-379.363,86.607C-379.304,92.753 -379.177,98.587 -367.631,98.587C-355.961,98.587 -355.216,93.497 -355.031,87.972L-355.031,62.893L-355.091,57.613L-361.359,57.613L-361.359,56.127L-347.644,56.127L-347.644,57.613L-353.041,57.613L-353.103,62.893L-353.103,85.491C-353.168,93.623 -353.229,100.574 -369.307,100.574C-371.601,100.574 -377.068,100.327 -380.542,98.898C-386.067,96.539 -386.191,91.698 -386.254,85.737L-386.254,62.893L-386.317,57.613L-391.656,57.613L-391.656,56.127L-373.156,56.127ZM-320.531,99.968C-320.807,99.968 -321.031,99.744 -321.031,99.468L-321.031,56.609C-321.031,56.332 -320.807,56.109 -320.531,56.109C-320.255,56.109 -320.031,56.332 -320.031,56.609L-320.031,99.468C-320.031,99.744 -320.255,99.968 -320.531,99.968ZM-289.935,85.177L-289.935,68.043L-287.942,68.043L-287.942,85.177L-289.935,85.177ZM-274.746,85.177L-274.746,76.868C-274.746,75.821 -274.984,75.04 -275.461,74.524C-275.937,74.008 -276.684,73.75 -277.699,73.75C-279.043,73.75 -280.028,74.114 -280.653,74.84C-281.278,75.567 -281.59,76.766 -281.59,78.438L-281.59,85.177L-283.536,85.177L-283.536,72.332L-281.954,72.332L-281.637,74.09L-281.543,74.09C-281.145,73.457 -280.586,72.969 -279.867,72.625C-279.149,72.274 -278.348,72.098 -277.465,72.098C-275.918,72.098 -274.754,72.473 -273.972,73.223C-273.191,73.965 -272.8,75.157 -272.8,76.798L-272.8,85.177L-274.746,85.177ZM-260.518,81.673C-260.518,82.868 -260.964,83.79 -261.854,84.439C-262.745,85.087 -263.995,85.411 -265.605,85.411C-267.308,85.411 -268.636,85.142 -269.589,84.603L-269.589,82.798C-268.972,83.111 -268.312,83.357 -267.609,83.536C-266.898,83.716 -266.214,83.806 -265.558,83.806C-264.542,83.806 -263.761,83.646 -263.214,83.325C-262.667,82.997 -262.393,82.501 -262.393,81.837C-262.393,81.337 -262.612,80.911 -263.05,80.56C-263.479,80.2 -264.323,79.778 -265.581,79.294C-266.777,78.848 -267.628,78.462 -268.136,78.134C-268.636,77.798 -269.011,77.419 -269.261,76.997C-269.503,76.575 -269.624,76.071 -269.624,75.485C-269.624,74.438 -269.199,73.614 -268.347,73.012C-267.495,72.403 -266.327,72.098 -264.843,72.098C-263.46,72.098 -262.108,72.379 -260.788,72.942L-261.479,74.524C-262.768,73.993 -263.937,73.727 -264.983,73.727C-265.905,73.727 -266.601,73.872 -267.07,74.161C-267.538,74.45 -267.773,74.848 -267.773,75.356C-267.773,75.7 -267.687,75.993 -267.515,76.235C-267.335,76.477 -267.05,76.708 -266.659,76.926C-266.269,77.145 -265.519,77.462 -264.409,77.876C-262.886,78.43 -261.858,78.989 -261.327,79.552C-260.788,80.114 -260.518,80.821 -260.518,81.673ZM-253.205,83.806C-252.861,83.806 -252.529,83.782 -252.209,83.736C-251.889,83.681 -251.635,83.626 -251.447,83.571L-251.447,85.06C-251.658,85.161 -251.971,85.243 -252.385,85.306C-252.791,85.376 -253.158,85.411 -253.487,85.411C-255.971,85.411 -257.213,84.103 -257.213,81.485L-257.213,73.844L-259.053,73.844L-259.053,72.907L-257.213,72.098L-256.393,69.356L-255.268,69.356L-255.268,72.332L-251.541,72.332L-251.541,73.844L-255.268,73.844L-255.268,81.403C-255.268,82.177 -255.084,82.771 -254.717,83.185C-254.35,83.599 -253.846,83.806 -253.205,83.806ZM-246.935,85.177L-248.881,85.177L-248.881,72.332L-246.935,72.332L-246.935,85.177ZM-249.045,68.852C-249.045,68.406 -248.935,68.082 -248.717,67.879C-248.498,67.668 -248.224,67.562 -247.896,67.562C-247.584,67.562 -247.314,67.668 -247.088,67.879C-246.861,68.09 -246.748,68.414 -246.748,68.852C-246.748,69.289 -246.861,69.617 -247.088,69.836C-247.314,70.047 -247.584,70.153 -247.896,70.153C-248.224,70.153 -248.498,70.047 -248.717,69.836C-248.935,69.617 -249.045,69.289 -249.045,68.852ZM-238.661,83.806C-238.317,83.806 -237.985,83.782 -237.665,83.736C-237.345,83.681 -237.091,83.626 -236.903,83.571L-236.903,85.06C-237.114,85.161 -237.427,85.243 -237.841,85.306C-238.247,85.376 -238.614,85.411 -238.942,85.411C-241.427,85.411 -242.669,84.103 -242.669,81.485L-242.669,73.844L-244.509,73.844L-244.509,72.907L-242.669,72.098L-241.849,69.356L-240.724,69.356L-240.724,72.332L-236.997,72.332L-236.997,73.844L-240.724,73.844L-240.724,81.403C-240.724,82.177 -240.54,82.771 -240.173,83.185C-239.806,83.599 -239.302,83.806 -238.661,83.806ZM-232.508,72.332L-232.508,80.665C-232.508,81.712 -232.27,82.493 -231.793,83.009C-231.317,83.525 -230.571,83.782 -229.555,83.782C-228.211,83.782 -227.231,83.415 -226.613,82.681C-225.988,81.946 -225.676,80.747 -225.676,79.083L-225.676,72.332L-223.73,72.332L-223.73,85.177L-225.336,85.177L-225.617,83.454L-225.723,83.454C-226.121,84.087 -226.676,84.572 -227.387,84.908C-228.09,85.243 -228.895,85.411 -229.801,85.411C-231.364,85.411 -232.536,85.04 -233.317,84.298C-234.091,83.556 -234.477,82.368 -234.477,80.735L-234.477,72.332L-232.508,72.332ZM-215.456,83.806C-215.113,83.806 -214.78,83.782 -214.46,83.736C-214.14,83.681 -213.886,83.626 -213.698,83.571L-213.698,85.06C-213.909,85.161 -214.222,85.243 -214.636,85.306C-215.042,85.376 -215.409,85.411 -215.738,85.411C-218.222,85.411 -219.464,84.103 -219.464,81.485L-219.464,73.844L-221.304,73.844L-221.304,72.907L-219.464,72.098L-218.644,69.356L-217.519,69.356L-217.519,72.332L-213.792,72.332L-213.792,73.844L-217.519,73.844L-217.519,81.403C-217.519,82.177 -217.335,82.771 -216.968,83.185C-216.601,83.599 -216.097,83.806 -215.456,83.806ZM-206.983,83.806C-206.639,83.806 -206.307,83.782 -205.987,83.736C-205.667,83.681 -205.413,83.626 -205.225,83.571L-205.225,85.06C-205.436,85.161 -205.749,85.243 -206.163,85.306C-206.569,85.376 -206.936,85.411 -207.264,85.411C-209.749,85.411 -210.991,84.103 -210.991,81.485L-210.991,73.844L-212.831,73.844L-212.831,72.907L-210.991,72.098L-210.171,69.356L-209.046,69.356L-209.046,72.332L-205.319,72.332L-205.319,73.844L-209.046,73.844L-209.046,81.403C-209.046,82.177 -208.862,82.771 -208.495,83.185C-208.128,83.599 -207.624,83.806 -206.983,83.806ZM-190.634,73.844L-193.904,73.844L-193.904,85.177L-195.849,85.177L-195.849,73.844L-198.146,73.844L-198.146,72.965L-195.849,72.262L-195.849,71.547C-195.849,68.391 -194.47,66.812 -191.712,66.812C-191.033,66.812 -190.236,66.949 -189.322,67.223L-189.825,68.781C-190.576,68.539 -191.216,68.418 -191.748,68.418C-192.482,68.418 -193.025,68.664 -193.377,69.156C-193.728,69.641 -193.904,70.422 -193.904,71.5L-193.904,72.332L-190.634,72.332L-190.634,73.844ZM-177.203,78.743C-177.203,80.837 -177.731,82.474 -178.786,83.654C-179.84,84.825 -181.298,85.411 -183.157,85.411C-184.306,85.411 -185.325,85.142 -186.216,84.603C-187.107,84.064 -187.794,83.29 -188.279,82.282C-188.763,81.274 -189.005,80.095 -189.005,78.743C-189.005,76.649 -188.482,75.02 -187.435,73.856C-186.388,72.684 -184.934,72.098 -183.075,72.098C-181.278,72.098 -179.852,72.696 -178.797,73.891C-177.735,75.086 -177.203,76.704 -177.203,78.743ZM-186.989,78.743C-186.989,80.384 -186.661,81.634 -186.005,82.493C-185.349,83.353 -184.384,83.782 -183.11,83.782C-181.837,83.782 -180.872,83.357 -180.215,82.505C-179.551,81.646 -179.219,80.392 -179.219,78.743C-179.219,77.11 -179.551,75.872 -180.215,75.028C-180.872,74.176 -181.844,73.75 -183.134,73.75C-184.407,73.75 -185.368,74.168 -186.017,75.004C-186.665,75.84 -186.989,77.087 -186.989,78.743ZM-167.933,72.098C-167.363,72.098 -166.851,72.145 -166.398,72.239L-166.668,74.043C-167.199,73.926 -167.668,73.868 -168.074,73.868C-169.113,73.868 -170.004,74.29 -170.746,75.133C-171.48,75.977 -171.848,77.028 -171.848,78.286L-171.848,85.177L-173.793,85.177L-173.793,72.332L-172.187,72.332L-171.965,74.711L-171.871,74.711C-171.394,73.875 -170.82,73.231 -170.148,72.778C-169.476,72.325 -168.738,72.098 -167.933,72.098ZM-149.018,83.454L-149.123,83.454C-150.022,84.759 -151.366,85.411 -153.155,85.411C-154.835,85.411 -156.143,84.837 -157.081,83.689C-158.011,82.54 -158.475,80.907 -158.475,78.79C-158.475,76.673 -158.007,75.028 -157.069,73.856C-156.132,72.684 -154.827,72.098 -153.155,72.098C-151.412,72.098 -150.076,72.731 -149.147,73.997L-148.994,73.997L-149.076,73.071L-149.123,72.168L-149.123,66.941L-147.178,66.941L-147.178,85.177L-148.76,85.177L-149.018,83.454ZM-152.909,83.782C-151.58,83.782 -150.619,83.423 -150.026,82.704C-149.424,81.978 -149.123,80.81 -149.123,79.2L-149.123,78.79C-149.123,76.969 -149.428,75.672 -150.037,74.899C-150.639,74.118 -151.604,73.727 -152.932,73.727C-154.073,73.727 -154.948,74.172 -155.557,75.063C-156.159,75.946 -156.46,77.196 -156.46,78.813C-156.46,80.454 -156.159,81.692 -155.557,82.528C-154.956,83.364 -154.073,83.782 -152.909,83.782ZM-137.626,85.411C-139.525,85.411 -141.025,84.833 -142.127,83.677C-143.22,82.521 -143.767,80.915 -143.767,78.86C-143.767,76.79 -143.259,75.145 -142.244,73.926C-141.22,72.707 -139.849,72.098 -138.13,72.098C-136.521,72.098 -135.247,72.629 -134.31,73.692C-133.372,74.747 -132.903,76.141 -132.903,77.876L-132.903,79.106L-141.752,79.106C-141.713,80.614 -141.334,81.759 -140.615,82.54C-139.888,83.321 -138.869,83.712 -137.556,83.712C-136.173,83.712 -134.806,83.423 -133.454,82.845L-133.454,84.579C-134.142,84.876 -134.794,85.087 -135.411,85.212C-136.021,85.345 -136.759,85.411 -137.626,85.411ZM-138.154,73.727C-139.185,73.727 -140.009,74.063 -140.626,74.735C-141.236,75.407 -141.595,76.337 -141.705,77.524L-134.989,77.524C-134.989,76.298 -135.263,75.36 -135.81,74.711C-136.357,74.055 -137.138,73.727 -138.154,73.727ZM-121.301,81.673C-121.301,82.868 -121.746,83.79 -122.637,84.439C-123.528,85.087 -124.778,85.411 -126.387,85.411C-128.09,85.411 -129.419,85.142 -130.372,84.603L-130.372,82.798C-129.755,83.111 -129.094,83.357 -128.391,83.536C-127.68,83.716 -126.997,83.806 -126.34,83.806C-125.325,83.806 -124.543,83.646 -123.996,83.325C-123.449,82.997 -123.176,82.501 -123.176,81.837C-123.176,81.337 -123.395,80.911 -123.832,80.56C-124.262,80.2 -125.106,79.778 -126.364,79.294C-127.559,78.848 -128.411,78.462 -128.919,78.134C-129.419,77.798 -129.794,77.419 -130.044,76.997C-130.286,76.575 -130.407,76.071 -130.407,75.485C-130.407,74.438 -129.981,73.614 -129.13,73.012C-128.278,72.403 -127.11,72.098 -125.625,72.098C-124.242,72.098 -122.891,72.379 -121.57,72.942L-122.262,74.524C-123.551,73.993 -124.719,73.727 -125.766,73.727C-126.688,73.727 -127.383,73.872 -127.852,74.161C-128.321,74.45 -128.555,74.848 -128.555,75.356C-128.555,75.7 -128.469,75.993 -128.297,76.235C-128.118,76.477 -127.833,76.708 -127.442,76.926C-127.051,77.145 -126.301,77.462 -125.192,77.876C-123.668,78.43 -122.641,78.989 -122.109,79.552C-121.57,80.114 -121.301,80.821 -121.301,81.673ZM-116.191,85.177L-118.137,85.177L-118.137,72.332L-116.191,72.332L-116.191,85.177ZM-118.301,68.852C-118.301,68.406 -118.191,68.082 -117.972,67.879C-117.754,67.668 -117.48,67.562 -117.152,67.562C-116.84,67.562 -116.57,67.668 -116.343,67.879C-116.117,68.09 -116.004,68.414 -116.004,68.852C-116.004,69.289 -116.117,69.617 -116.343,69.836C-116.57,70.047 -116.84,70.153 -117.152,70.153C-117.48,70.153 -117.754,70.047 -117.972,69.836C-118.191,69.617 -118.301,69.289 -118.301,68.852ZM-101.553,72.332L-101.553,73.563L-103.932,73.844C-103.714,74.118 -103.518,74.477 -103.346,74.922C-103.174,75.36 -103.089,75.856 -103.089,76.411C-103.089,77.669 -103.518,78.673 -104.378,79.423C-105.237,80.173 -106.417,80.548 -107.917,80.548C-108.3,80.548 -108.659,80.517 -108.995,80.454C-109.823,80.892 -110.237,81.442 -110.237,82.107C-110.237,82.458 -110.093,82.72 -109.804,82.892C-109.515,83.056 -109.019,83.138 -108.315,83.138L-106.042,83.138C-104.651,83.138 -103.585,83.431 -102.842,84.017C-102.092,84.603 -101.717,85.454 -101.717,86.572C-101.717,87.994 -102.288,89.076 -103.428,89.818C-104.569,90.568 -106.233,90.943 -108.421,90.943C-110.101,90.943 -111.398,90.631 -112.312,90.006C-113.218,89.381 -113.671,88.498 -113.671,87.357C-113.671,86.576 -113.421,85.9 -112.921,85.329C-112.421,84.759 -111.718,84.372 -110.812,84.169C-111.14,84.021 -111.417,83.79 -111.644,83.478C-111.863,83.165 -111.972,82.802 -111.972,82.388C-111.972,81.919 -111.847,81.509 -111.597,81.157C-111.347,80.806 -110.952,80.466 -110.413,80.138C-111.077,79.864 -111.62,79.399 -112.042,78.743C-112.456,78.087 -112.663,77.337 -112.663,76.493C-112.663,75.086 -112.242,74.004 -111.398,73.247C-110.554,72.481 -109.359,72.098 -107.812,72.098C-107.14,72.098 -106.534,72.176 -105.995,72.332L-101.553,72.332ZM-110.741,76.446C-110.741,77.344 -110.488,78.024 -109.98,78.485C-109.472,78.946 -108.765,79.177 -107.858,79.177C-105.96,79.177 -105.011,78.255 -105.011,76.411C-105.011,74.481 -105.972,73.516 -107.894,73.516C-108.808,73.516 -109.511,73.762 -110.003,74.254C-110.495,74.747 -110.741,75.477 -110.741,76.446ZM-111.796,87.333C-111.796,88.029 -111.503,88.556 -110.917,88.916C-110.331,89.275 -109.491,89.455 -108.398,89.455C-106.765,89.455 -105.557,89.209 -104.776,88.716C-103.987,88.232 -103.592,87.572 -103.592,86.736C-103.592,86.04 -103.807,85.556 -104.237,85.283C-104.667,85.017 -105.475,84.884 -106.663,84.884L-108.995,84.884C-109.878,84.884 -110.566,85.095 -111.058,85.517C-111.55,85.939 -111.796,86.544 -111.796,87.333ZM-90.127,85.177L-90.127,76.868C-90.127,75.821 -90.365,75.04 -90.842,74.524C-91.318,74.008 -92.064,73.75 -93.08,73.75C-94.424,73.75 -95.408,74.114 -96.033,74.84C-96.658,75.567 -96.971,76.766 -96.971,78.438L-96.971,85.177L-98.916,85.177L-98.916,72.332L-97.334,72.332L-97.018,74.09L-96.924,74.09C-96.525,73.457 -95.967,72.969 -95.248,72.625C-94.529,72.274 -93.728,72.098 -92.846,72.098C-91.299,72.098 -90.134,72.473 -89.353,73.223C-88.572,73.965 -88.181,75.157 -88.181,76.798L-88.181,85.177L-90.127,85.177Z" style="fill:white;"/>
    </g>
</svg>
