<svg width="82" height="25" viewBox="0 0 82 25" fill="none" xmlns="http://www.w3.org/2000/svg">
<path fill-rule="evenodd" clip-rule="evenodd" d="M57.9359 0.839844H82V24.8398H57.9359V0.839844ZM69.011 12.6408L62.1574 19.4763C61.3641 20.27 60.5708 21.0612 59.7775 21.8524C59.368 22.2608 60.0041 22.8979 60.4162 22.4869L69.6499 13.2779L78.8834 22.4869C79.293 22.8953 79.9317 22.2608 79.5196 21.8498L70.286 12.6408L77.1397 5.80782C77.933 5.01664 78.7263 4.22549 79.5196 3.43174C79.9317 3.02331 79.2955 2.38623 78.8834 2.79723C75.8056 5.86691 72.7278 8.93657 69.6499 12.0063L62.7962 5.1708C62.0029 4.37962 61.2096 3.58841 60.4137 2.79723C60.0042 2.38623 59.3654 3.02074 59.7775 3.43174L69.011 12.6408ZM29.0219 0.839844H53.086V24.8398H29.0219V0.839844ZM50.3533 22.1221C50.4357 22.0502 50.4898 21.9423 50.4898 21.7984V3.87874C50.4898 3.63727 50.2838 3.42915 50.0391 3.42915H32.0715C31.8294 3.42915 31.6208 3.63727 31.6208 3.87874V21.7984C31.6208 22.0425 31.8294 22.2479 32.0715 22.2479H50.0391C50.1756 22.2479 50.2812 22.1992 50.3533 22.1221ZM49.5884 21.3489H32.5222V4.32824H49.5884V21.3489ZM0.110558 0.839844H24.1747V24.8398H0.110558V0.839844ZM22.4027 19.8128H1.88523C1.30314 19.8128 1.30314 20.7118 1.88523 20.7118H22.4027C22.9822 20.7118 22.9848 19.8128 22.4027 19.8128Z" fill="#2E4057"/>
</svg>
