<svg width="144" height="24" viewBox="0 0 144 24" fill="none" xmlns="http://www.w3.org/2000/svg">
<path id="Vector" fill-rule="evenodd" clip-rule="evenodd" d="M14.6539 0V6.85676H7.79718V13.7135H0.94043V6.85676H4.36745V3.42973H7.79718V0H14.6539ZM132.51 24V21.3219H137.438V18.8581C136.296 18.869 135.066 18.8961 134.114 18.1635C132.942 17.2626 132.7 15.83 132.326 14.4868C131.517 11.5781 130.842 8.61775 130.152 5.67914H133.259L135.083 15.7486L138.236 15.754L140.119 5.67914H143.226V6.10786C141.999 10.1617 141.242 14.3647 140.064 18.4294C139.158 21.5634 137.842 23.205 134.545 24H132.51ZM73.475 0V5.46478H77.5451V8.35726H73.475V15.7486H78.8312V18.6438C76.2806 18.7306 73.9145 18.3643 72.1861 16.3428C71.6299 15.6889 70.6883 13.9686 70.6883 13.1247V8.35726H67.9044V5.46478H70.6883V0H73.475ZM39.0827 0V5.46478H42.5124V8.35726H39.0827V15.7486H43.7958V18.6438C40.8165 18.7523 37.8806 17.6534 36.7519 14.7066C36.6433 14.4244 36.296 13.3526 36.296 13.1247V8.35726H33.5121V5.46478H36.296V0H39.0827ZM67.7958 13.2848H57.4035V15.7486H66.1895V18.641C61.9376 18.5786 56.8663 19.5229 54.8149 14.75C52.088 8.40611 59.6095 2.38779 65.1096 6.59898C66.1054 7.35873 67.7958 9.60271 67.7958 10.8753V13.2848ZM64.689 8.35726H57.4035V10.821H64.689V8.35726ZM107.547 13.2848H97.1548V15.7486H105.938V18.641C101.686 18.5786 96.6148 19.5229 94.5635 14.75C91.8365 8.40611 99.3608 2.38779 104.858 6.59898C105.854 7.35873 107.547 9.60271 107.547 10.8753V13.2848ZM104.44 8.35726H97.1548V10.821H104.44V8.35726ZM85.0232 5.28027C95.0628 4.07552 95.4046 18.9015 86.076 18.8473C77.5885 18.7957 77.1652 6.22182 85.0232 5.28027ZM89.8693 8.35726H82.3695V15.7513H89.8693V8.35726ZM110.974 5.67914L113.072 15.754L115.581 15.7486L117.617 5.67914H120.723C119.983 8.72357 119.323 11.8168 118.466 14.8314C117.823 17.089 117.085 18.8256 114.339 18.8473C111.544 18.869 110.776 17.1243 110.125 14.8314C109.27 11.8168 108.608 8.72357 107.867 5.67914H110.974ZM128.438 5.46478V8.35726H124.582V15.7513H129.295V18.6438H119.866V15.7513H121.795V10.7695C121.795 10.566 122.145 9.54845 122.248 9.29339C123.231 6.88118 125.849 5.32097 128.438 5.46478ZM44.8676 5.46478C47.7275 5.30741 50.3894 7.2719 51.2387 9.96902C51.2929 10.1454 51.51 10.8753 51.51 10.9838V15.7513H54.0823V18.6438H46.1538V15.7513H48.7234V8.35726H44.8676V5.46478ZM20.4389 13.6077L20.504 13.8275C22.0832 14.4136 21.8282 16.9913 20.0699 17.146C18.6752 17.2681 17.91 16.4323 18.0782 15.0485C18.1949 14.107 19.131 13.8492 19.1528 13.7651C19.2124 13.548 18.526 13.4367 18.4527 13.1817C17.4216 11.6296 18.4418 9.91747 20.3602 10.3082C21.8444 10.6121 21.9855 13.2441 20.4389 13.6077ZM14.5481 18.215L14.7679 18.1499C15.354 16.5707 17.9317 16.8258 18.0864 18.5841C18.2085 19.9787 17.3728 20.7439 15.9889 20.5757C15.0474 20.459 14.7896 19.5229 14.7055 19.5012C14.4884 19.4415 14.3772 20.128 14.1221 20.2012C12.5701 21.2323 10.8579 20.2121 11.2486 18.2937C11.5525 16.8095 14.1845 16.6684 14.5481 18.215ZM50.0828 4.03482C49.0788 5.04149 47.0872 4.52595 46.9027 3.05529C46.5119 -0.0352745 51.1681 0.157377 50.5223 3.24251C50.4898 3.40531 50.2022 3.91543 50.0828 4.03482ZM22.767 10.5253C25.2579 10.007 25.4614 13.6728 23.06 13.5073C21.2991 13.3825 21.3099 10.8265 22.767 10.5253ZM19.34 17.382C21.8309 16.8638 22.0344 20.5296 19.633 20.364C17.872 20.2392 17.8829 17.6832 19.34 17.382ZM12.4805 20.8118C14.9714 20.2935 15.1749 23.9593 12.7736 23.7938C11.0126 23.669 11.0234 21.1129 12.4805 20.8118ZM22.7643 14.1666C25.2226 13.605 25.0435 17.3956 22.6829 16.6684C21.6328 16.3428 21.6762 14.4163 22.7643 14.1666ZM15.9075 21.0234C18.3659 20.4617 18.1868 24.2523 15.8261 23.5252C14.776 23.1995 14.8195 21.273 15.9075 21.0234Z" fill="white"/>
</svg>
